<svg id="Layer_1" data-name="Layer 1" xmlns="http://www.w3.org/2000/svg" viewBox="0 0 48 48"><path d="M24,0A24,24,0,1,0,48,24,24,24,0,0,0,24,0Zm0,46A22,22,0,1,1,46,24,22,22,0,0,1,24,46Z"/><path d="M25.13,22.93l1.22-10.7A13.3,13.3,0,0,1,30,13.78l1-1.73a14.89,14.89,0,0,0-4.43-1.83L27,6.61l-2-.23L24.59,10H24.5c-3.82,0-7.42,3.21-7.42,6.61,0,3.09,1.94,5.56,5.9,7.53L21.64,35.84a11.09,11.09,0,0,1-3.93-1.62l-0.2-.12-1,1.72,0.2,0.12a12.83,12.83,0,0,0,4.73,1.89L21,41.39l2,0.23L23.41,38H23.5c4.18,0,8.5-2.66,8.5-7.12C32,27.25,30.19,25.15,25.13,22.93Zm-6.05-6.32c0-2.24,2.65-4.52,5.29-4.6L23.22,22C20.45,20.47,19.08,18.7,19.08,16.61ZM23.64,36l1.25-11C29.18,27,30,28.58,30,30.88,30,34.35,26.32,35.94,23.64,36Z"/></svg>
